<svg xmlns="http://www.w3.org/2000/svg" width="64" height="64" viewBox="0 0 64 64"><defs><style>.a{fill:gray;}</style></defs><g transform="translate(0 0)"><path class="a" d="M30.971,20A10.971,10.971,0,1,0,41.943,30.971,10.971,10.971,0,0,0,30.971,20Zm8.751,8.33-.147-.037-2.61-1.737a.914.914,0,0,0-.286-.126L33.364,25.6l-1.632-2.449a.931.931,0,0,0-.352-.311l-1.789-.894a9.044,9.044,0,0,1,1.381-.119A9.157,9.157,0,0,1,39.722,28.33Zm-16.431-2.3.445.751.884,2.651a.905.905,0,0,0,.578.578l2.116.7v1.705l-1.5,1.5-2.661,1.774A9.067,9.067,0,0,1,23.291,26.034Zm.987,11.146.042-.062,2.588-1.726a.915.915,0,0,0,.139-.114l1.829-1.829a.914.914,0,0,0,.266-.649V30.057a.914.914,0,0,0-.625-.867l-2.309-.771-.771-2.309a.914.914,0,0,0-.08-.177l-.846-1.426a9.175,9.175,0,0,1,2.544-1.786l3.291,1.646,1.694,2.542a.914.914,0,0,0,.539.379l3.5.876L38.7,29.9a.941.941,0,0,0,.287.127l1.1.274c.016.221.034.443.034.667a9.087,9.087,0,0,1-.261,2.128.894.894,0,0,0-.432-.274l-3.589-.894-2.743-.914a.914.914,0,0,0-.8.106l-2.743,1.829a.914.914,0,0,0-.359.472l-.876,2.627-1.675,2.512-.336.254a9.219,9.219,0,0,1-2.026-1.638Zm6.693,2.934a9.071,9.071,0,0,1-2.858-.464l1.79-2.685a.878.878,0,0,0,.106-.219l.816-2.445,2.11-1.41,2.386.792,3.3.823.442.7a9.143,9.143,0,0,1-8.091,4.907Z" transform="translate(1.029 1.029)"/><path class="a" d="M17.543,39H2.914A.914.914,0,0,0,2,39.914v19.2a.914.914,0,0,0,.914.914H17.543a.914.914,0,0,0,.914-.914v-19.2A.914.914,0,0,0,17.543,39ZM3.829,40.829h12.8V45.4H3.829Zm12.8,6.4V51.8H3.829V47.229Zm0,10.971H3.829V53.629h12.8Z" transform="translate(-2 3.971)"/><rect class="a" width="1.829" height="1.829" transform="translate(3.657 42.877)"/><rect class="a" width="1.829" height="1.829" transform="translate(3.657 50.38)"/><rect class="a" width="1.829" height="1.829" transform="translate(3.657 58.514)"/><rect class="a" width="6.4" height="1.829" transform="translate(6.4 42.877)"/><rect class="a" width="6.4" height="1.829" transform="translate(6.4 50.38)"/><rect class="a" width="6.4" height="1.829" transform="translate(6.4 58.514)"/><path class="a" d="M13.571,24v1.829H10.829V24H9v2.743a.914.914,0,0,0,.914.914h3.657v1.829l2.743-2.743Z" transform="translate(-2.6 -0.161)"/><path class="a" d="M16.314,33.743,13.571,31v1.829H9.914A.914.914,0,0,0,9,33.743v2.743h1.829V34.657h2.743v1.829Z" transform="translate(-2.6 0.424)"/><path class="a" d="M47,26.743l2.743,2.743V27.657H53.4a.914.914,0,0,0,.914-.914V24H52.486v1.829H49.743V24Z" transform="translate(3.286 -0.161)"/><path class="a" d="M49.743,36.486V34.657h2.743v1.829h1.829V33.743a.914.914,0,0,0-.914-.914H49.743V31L47,33.743Z" transform="translate(3.286 0.424)"/><path class="a" d="M53.314,38C52.566,38,46,38.077,46,40.743V57.2c0,2.666,6.566,2.743,7.314,2.743s7.314-.077,7.314-2.743V40.743C60.629,38.077,54.062,38,53.314,38Zm0,1.829a11.915,11.915,0,0,1,5.329.914,11.915,11.915,0,0,1-5.329.914,11.915,11.915,0,0,1-5.329-.914A11.915,11.915,0,0,1,53.314,39.829ZM58.8,46.1c-.349.372-2.267,1.043-5.486,1.043s-5.136-.671-5.486-1.043V42.67a18.857,18.857,0,0,0,10.971,0ZM53.314,58.114c-3.18,0-5.1-.656-5.486-1.031V53.642a18.857,18.857,0,0,0,10.971,0v3.441C58.416,57.458,56.494,58.114,53.314,58.114ZM58.8,51.6c-.384.375-2.306,1.031-5.486,1.031s-5.1-.656-5.486-1.031V48.156a18.857,18.857,0,0,0,10.971,0Z" transform="translate(3.371 4.057)"/><path class="a" d="M2.914,20.286H17.543a.914.914,0,0,0,.914-.914V7.486a.914.914,0,0,0-.268-.646L13.618,2.268A.914.914,0,0,0,12.971,2H2.914A.914.914,0,0,0,2,2.914V19.371A.914.914,0,0,0,2.914,20.286ZM13.886,5.121l1.45,1.45h-1.45ZM3.829,3.829h8.229V7.486a.914.914,0,0,0,.914.914h3.657V18.457H3.829Z" transform="translate(-2 -2)"/><path class="a" d="M59.371,2h-6.4a.914.914,0,0,0-.646.268L50.764,3.829h-7.85A.914.914,0,0,0,42,4.743V18.457a.914.914,0,0,0,.914.914H59.371a.914.914,0,0,0,.914-.914V2.914A.914.914,0,0,0,59.371,2ZM51.143,5.657a.914.914,0,0,0,.646-.268L53.35,3.829h5.107V7.486H43.829V5.657Zm7.314,11.886H43.829V9.314H58.457Z" transform="translate(3.714 -2)"/><rect class="a" width="3.657" height="1.829" transform="translate(47.412 9.143)"/><rect class="a" width="4.571" height="1.829" transform="translate(3.657 3.657)"/><rect class="a" width="9.143" height="1.829" transform="translate(3.657 7.314)"/><rect class="a" width="1.829" height="1.829" transform="translate(3.657 12.863)"/><rect class="a" width="5.486" height="1.829" transform="translate(7.314 12.863)"/></g></svg>