<svg xmlns="http://www.w3.org/2000/svg" width="64" height="62.017" viewBox="0 0 64 62.017"><defs><style>.a{fill:#999;}</style></defs><path class="a" d="M45.212,68.933a1.8,1.8,0,0,1-1.482-.806l-4.5-6.561a22.633,22.633,0,0,1-3.439,0l-4.5,6.561a1.8,1.8,0,0,1-1.942.719,32.044,32.044,0,0,1-3.446-1.122A1.8,1.8,0,0,1,24.766,66l.223-7.914a23.919,23.919,0,0,1-2.777-2.022l-7.489,2.662a1.8,1.8,0,0,1-1.993-.554,32.524,32.524,0,0,1-2.158-2.935,1.8,1.8,0,0,1,.086-2.072L15.5,46.869A23.59,23.59,0,0,1,14.493,43.6L6.845,41.351a1.8,1.8,0,0,1-1.288-1.626C5.522,39.07,5.5,38.48,5.5,37.912s0-1.158.058-1.813a1.8,1.8,0,0,1,1.288-1.626l7.647-2.245a23.589,23.589,0,0,1,1.065-3.273L10.68,22.667a1.8,1.8,0,0,1-.086-2.072,32.526,32.526,0,0,1,2.158-2.935,1.8,1.8,0,0,1,1.993-.554l7.489,2.662a23.922,23.922,0,0,1,2.755-2l-.223-7.914A1.8,1.8,0,0,1,25.91,8.128a32.044,32.044,0,0,1,3.446-1.151A1.8,1.8,0,0,1,31.3,7.7l4.5,6.561a22.634,22.634,0,0,1,3.439,0L43.73,7.7a1.8,1.8,0,0,1,1.942-.719A32.044,32.044,0,0,1,49.119,8.1a1.8,1.8,0,0,1,1.144,1.727l-.223,7.914a23.921,23.921,0,0,1,2.777,2.022L60.306,17.1a1.8,1.8,0,0,1,1.993.554,32.525,32.525,0,0,1,2.158,2.935,1.8,1.8,0,0,1-.086,2.072l-4.842,6.295a23.589,23.589,0,0,1,1.007,3.273l7.619,2.245A1.8,1.8,0,0,1,69.442,36.1c.036.655.058,1.245.058,1.813s0,1.158-.058,1.813a1.8,1.8,0,0,1-1.288,1.626L60.536,43.6a23.588,23.588,0,0,1-1.065,3.273l4.842,6.295a1.8,1.8,0,0,1,.086,2.072,32.526,32.526,0,0,1-2.158,2.935,1.8,1.8,0,0,1-1.993.554l-7.489-2.662a23.921,23.921,0,0,1-2.719,1.993l.223,7.914A1.8,1.8,0,0,1,49.119,67.7a32.043,32.043,0,0,1-3.446,1.151A1.806,1.806,0,0,1,45.212,68.933ZM40.119,57.9a1.8,1.8,0,0,1,1.482.784l4.36,6.367.669-.216-.216-7.712a1.8,1.8,0,0,1,.921-1.619,20.252,20.252,0,0,0,3.849-2.813,1.791,1.791,0,0,1,1.842-.388l7.266,2.583.41-.568L56,48.221a1.8,1.8,0,0,1-.209-1.856,20.029,20.029,0,0,0,1.475-4.547,1.8,1.8,0,0,1,1.259-1.381l7.4-2.158v-.705l-7.4-2.158a1.8,1.8,0,0,1-1.259-1.381,20.029,20.029,0,0,0-1.475-4.547A1.8,1.8,0,0,1,56,27.631l4.7-6.108-.41-.568-7.266,2.568a1.8,1.8,0,0,1-1.842-.388,20.252,20.252,0,0,0-3.863-2.813A1.8,1.8,0,0,1,46.4,18.7l.216-7.712-.669-.216-4.36,6.367a1.8,1.8,0,0,1-1.7.77,19.424,19.424,0,0,0-4.784,0,1.813,1.813,0,0,1-1.7-.77l-4.36-6.367-.669.216.216,7.712a1.8,1.8,0,0,1-.921,1.619,20.252,20.252,0,0,0-3.827,2.813,1.8,1.8,0,0,1-1.827.374l-7.266-2.583-.41.568,4.7,6.108a1.8,1.8,0,0,1,.209,1.856,20.029,20.029,0,0,0-1.475,4.547,1.8,1.8,0,0,1-1.259,1.381l-7.4,2.158v.705l7.4,2.158a1.8,1.8,0,0,1,1.259,1.381,20.029,20.029,0,0,0,1.475,4.547,1.8,1.8,0,0,1-.209,1.856l-4.7,6.108.41.568L22,52.3a1.8,1.8,0,0,1,1.827.374,20.252,20.252,0,0,0,3.863,2.813,1.8,1.8,0,0,1,.921,1.619L28.4,64.818l.669.216,4.36-6.367a1.813,1.813,0,0,1,1.7-.77,19.424,19.424,0,0,0,4.784,0Zm-2.6-7.036a12.95,12.95,0,1,1,12.95-12.95,12.95,12.95,0,0,1-12.95,12.95Zm0-22.3a9.353,9.353,0,1,0,9.353,9.353A9.353,9.353,0,0,0,37.514,28.559Z" transform="translate(-5.5 -6.917)"/></svg>