<svg xmlns="http://www.w3.org/2000/svg" width="64" height="64" viewBox="0 0 64 64"><defs><style>.a{fill:gray;}</style></defs><g transform="translate(9.536 9.536)"><path class="a" d="M58.932,59.828H15.8a.875.875,0,0,1-.9-.9V15.8a.875.875,0,0,1,.9-.9H58.932a.875.875,0,0,1,.9.9V58.932A.875.875,0,0,1,58.932,59.828ZM16.628,58.1H58.036V16.628H16.628Z" transform="translate(-14.9 -14.9)"/></g><g transform="translate(16.448 16.384)"><path class="a" d="M53.924,56.9h-6.4a3.012,3.012,0,0,1-2.112-.9l-1.088-1.088a1.127,1.127,0,0,0-.832-.384H39.076a1.032,1.032,0,0,0-.832.384L37.156,56a2.9,2.9,0,0,1-2.112.9h-6.4A2.936,2.936,0,0,1,25.7,53.952V28.544A2.936,2.936,0,0,1,28.644,25.6H53.988a2.936,2.936,0,0,1,2.944,2.944V53.888A3.09,3.09,0,0,1,53.924,56.9ZM39.076,52.8h4.416a3.012,3.012,0,0,1,2.112.9l1.088,1.088a1.127,1.127,0,0,0,.832.384h6.4a1.215,1.215,0,0,0,1.216-1.216V28.544a1.215,1.215,0,0,0-1.216-1.216H28.58a1.215,1.215,0,0,0-1.216,1.216V53.888A1.215,1.215,0,0,0,28.58,55.1h6.4a1.032,1.032,0,0,0,.832-.384L36.9,53.632A3.411,3.411,0,0,1,39.076,52.8Z" transform="translate(-25.7 -25.6)"/></g><g transform="translate(9.536)"><path class="a" d="M15.8,7.04a.875.875,0,0,1-.9-.9V.9a.9.9,0,1,1,1.792,0V6.208A.956.956,0,0,1,15.8,7.04Z" transform="translate(-14.9)"/><g transform="translate(7.168)"><path class="a" d="M27,7.04a.875.875,0,0,1-.9-.9V.9a.9.9,0,1,1,1.792,0V6.208A.862.862,0,0,1,27,7.04Z" transform="translate(-26.1)"/></g><g transform="translate(14.4)"><path class="a" d="M38.3,7.04a.875.875,0,0,1-.9-.9V.9a.9.9,0,1,1,1.792,0V6.208A.956.956,0,0,1,38.3,7.04Z" transform="translate(-37.4)"/></g><g transform="translate(21.568)"><path class="a" d="M49.5,7.04a.875.875,0,0,1-.9-.9V.9a.9.9,0,1,1,1.792,0V6.208A.862.862,0,0,1,49.5,7.04Z" transform="translate(-48.6)"/></g><g transform="translate(28.736)"><path class="a" d="M60.7,7.04a.875.875,0,0,1-.9-.9V.9a.9.9,0,0,1,1.792,0V6.208A.862.862,0,0,1,60.7,7.04Z" transform="translate(-59.8)"/></g><g transform="translate(35.968)"><path class="a" d="M72,7.04a.875.875,0,0,1-.9-.9V.9a.9.9,0,0,1,1.792,0V6.208A.906.906,0,0,1,72,7.04Z" transform="translate(-71.1)"/></g><g transform="translate(43.136)"><path class="a" d="M83.2,7.04a.875.875,0,0,1-.9-.9V.9a.962.962,0,0,1,.9-.9.875.875,0,0,1,.9.9V6.208A.862.862,0,0,1,83.2,7.04Z" transform="translate(-82.3)"/></g></g><g transform="translate(0 9.536)"><g transform="translate(0 43.136)"><path class="a" d="M6.144,84.092H.9A.9.9,0,1,1,.9,82.3H6.208a.875.875,0,0,1,.9.9A.973.973,0,0,1,6.144,84.092Z" transform="translate(0 -82.3)"/></g><g transform="translate(0 35.968)"><path class="a" d="M6.144,72.892H.9A.9.9,0,0,1,.9,71.1H6.208a.875.875,0,0,1,.9.9A1.026,1.026,0,0,1,6.144,72.892Z" transform="translate(0 -71.1)"/></g><g transform="translate(0 28.736)"><path class="a" d="M6.144,61.592H.9A.9.9,0,0,1,.9,59.8H6.208a.875.875,0,0,1,.9.9A.93.93,0,0,1,6.144,61.592Z" transform="translate(0 -59.8)"/></g><g transform="translate(0 21.568)"><path class="a" d="M6.144,50.392H.9A.9.9,0,1,1,.9,48.6H6.208a.875.875,0,0,1,.9.9A.93.93,0,0,1,6.144,50.392Z" transform="translate(0 -48.6)"/></g><g transform="translate(0 14.336)"><path class="a" d="M6.144,39.092H.9A.9.9,0,1,1,.9,37.3H6.208a.875.875,0,0,1,.9.9A.93.93,0,0,1,6.144,39.092Z" transform="translate(0 -37.3)"/></g><g transform="translate(0 7.168)"><path class="a" d="M6.144,27.892H.9A.9.9,0,1,1,.9,26.1H6.208a.875.875,0,0,1,.9.9A.973.973,0,0,1,6.144,27.892Z" transform="translate(0 -26.1)"/></g><path class="a" d="M6.144,16.628H.9A.862.862,0,0,1,0,15.8a.875.875,0,0,1,.9-.9H6.208a.875.875,0,0,1,.9.9A.969.969,0,0,1,6.144,16.628Z" transform="translate(0 -14.9)"/></g><g transform="translate(9.536 56.896)"><g transform="translate(43.136)"><path class="a" d="M83.2,96a.875.875,0,0,1-.9-.9V89.8a.9.9,0,0,1,1.792,0v5.312A.875.875,0,0,1,83.2,96Z" transform="translate(-82.3 -88.9)"/></g><g transform="translate(35.968)"><path class="a" d="M72,96a.875.875,0,0,1-.9-.9V89.8a.9.9,0,0,1,1.792,0v5.312A.915.915,0,0,1,72,96Z" transform="translate(-71.1 -88.9)"/></g><g transform="translate(28.736)"><path class="a" d="M60.7,96a.875.875,0,0,1-.9-.9V89.8a.9.9,0,0,1,1.792,0v5.312A.875.875,0,0,1,60.7,96Z" transform="translate(-59.8 -88.9)"/></g><g transform="translate(21.568)"><path class="a" d="M49.5,96a.875.875,0,0,1-.9-.9V89.8a.9.9,0,0,1,1.792,0v5.312A.875.875,0,0,1,49.5,96Z" transform="translate(-48.6 -88.9)"/></g><g transform="translate(14.4)"><path class="a" d="M38.3,96a.875.875,0,0,1-.9-.9V89.8a.9.9,0,0,1,1.792,0v5.312A.962.962,0,0,1,38.3,96Z" transform="translate(-37.4 -88.9)"/></g><g transform="translate(7.168)"><path class="a" d="M27,96a.875.875,0,0,1-.9-.9V89.8a.9.9,0,0,1,1.792,0v5.312A.875.875,0,0,1,27,96Z" transform="translate(-26.1 -88.9)"/></g><path class="a" d="M15.8,96a.875.875,0,0,1-.9-.9V89.8a.9.9,0,0,1,1.792,0v5.312A.962.962,0,0,1,15.8,96Z" transform="translate(-14.9 -88.9)"/></g><g transform="translate(56.896 9.472)"><path class="a" d="M95.108,16.592H89.8a.9.9,0,0,1,0-1.792h5.312a.9.9,0,0,1,0,1.792Z" transform="translate(-88.9 -14.8)"/><g transform="translate(0 7.232)"><path class="a" d="M95.108,27.892H89.8a.9.9,0,0,1,0-1.792h5.312a.9.9,0,0,1,0,1.792Z" transform="translate(-88.9 -26.1)"/></g><g transform="translate(0 14.4)"><path class="a" d="M95.108,39.092H89.8a.9.9,0,0,1,0-1.792h5.312a.9.9,0,0,1,0,1.792Z" transform="translate(-88.9 -37.3)"/></g><g transform="translate(0 21.632)"><path class="a" d="M95.108,50.392H89.8a.9.9,0,0,1,0-1.792h5.312a.9.9,0,0,1,0,1.792Z" transform="translate(-88.9 -48.6)"/></g><g transform="translate(0 28.8)"><path class="a" d="M95.108,61.592H89.8a.9.9,0,0,1,0-1.792h5.312a.9.9,0,0,1,0,1.792Z" transform="translate(-88.9 -59.8)"/></g><g transform="translate(0 36.032)"><path class="a" d="M95.108,72.892H89.8a.9.9,0,0,1,0-1.792h5.312a.875.875,0,0,1,.9.9A.915.915,0,0,1,95.108,72.892Z" transform="translate(-88.9 -71.1)"/></g><g transform="translate(0 43.2)"><path class="a" d="M95.108,84.092H89.8a.9.9,0,0,1,0-1.792h5.312a.9.9,0,0,1,0,1.792Z" transform="translate(-88.9 -82.3)"/></g></g></svg>